<svg width="22" height="22" viewBox="0 0 22 22" fill="none" xmlns="http://www.w3.org/2000/svg">
<path fill-rule="evenodd" clip-rule="evenodd" d="M11 0C4.92525 0 0 4.92525 0 11C0 17.0747 4.92525 22 11 22C17.0747 22 22 17.0747 22 11C22 4.92525 17.0747 0 11 0ZM11 1.83333C16.0545 1.83333 20.1667 5.9455 20.1667 11C20.1667 16.0545 16.0545 20.1667 11 20.1667C5.9455 20.1667 1.83333 16.0545 1.83333 11C1.83333 5.9455 5.9455 1.83333 11 1.83333ZM11.0009 14.5493C13.1386 14.5493 14.6621 13.8747 16.0481 12.7793L16.5 13.2312C15.4669 14.8078 13.5676 16.5 11.0009 16.5C8.43333 16.5 6.53308 14.8078 5.5 13.2312L5.95192 12.7793C7.33792 13.8747 8.86142 14.5493 11.0009 14.5493ZM7.79167 7.33333C7.03267 7.33333 6.41667 7.94842 6.41667 8.70833C6.41667 9.46825 7.03267 10.0833 7.79167 10.0833C8.55067 10.0833 9.16667 9.46825 9.16667 8.70833C9.16667 7.94842 8.55067 7.33333 7.79167 7.33333ZM12.8333 8.70833C12.8333 7.94842 13.4493 7.33333 14.2083 7.33333C14.9673 7.33333 15.5833 7.94842 15.5833 8.70833C15.5833 9.46825 14.9673 10.0833 14.2083 10.0833C13.4493 10.0833 12.8333 9.46825 12.8333 8.70833Z" fill="#D1D9E6"/>
</svg>
